<?xml version="1.0" encoding="UTF-8"?>
<svg width="131px" height="79px" viewBox="0 0 131 79" version="1.1" xmlns="http://www.w3.org/2000/svg" xmlns:xlink="http://www.w3.org/1999/xlink">
    <title>路径</title>
    <defs>
        <linearGradient x1="9.74058014%" y1="50%" x2="100%" y2="50%" id="linearGradient-1">
            <stop stop-color="#FFFFFF" offset="0%"></stop>
            <stop stop-color="#FFFFFF" stop-opacity="0" offset="100%"></stop>
        </linearGradient>
        <linearGradient x1="107.292317%" y1="50%" x2="1.09215937e-14%" y2="50%" id="linearGradient-2">
            <stop stop-color="#00A9FB" stop-opacity="0" offset="0%"></stop>
            <stop stop-color="#0070F6" offset="100%"></stop>
        </linearGradient>
        <path d="M680.086567,493.742586 C680.086567,496.079658 679.316103,497.665529 677.775176,498.500198 C676.234249,499.334867 673.768766,499.752201 670.378726,499.752201 L663.097845,499.752201 C659.784852,499.752201 656.259981,499.766113 652.523233,499.793935 C648.786485,499.821757 645.146044,499.835668 641.601912,499.835668 L633.165336,499.835668 C630.237574,499.835668 627.906922,500.044336 626.173379,500.46167 C624.439836,500.879004 623.611588,501.838874 623.688634,503.341278 C623.688634,504.454169 623.650111,505.775728 623.573065,507.305955 C623.496018,508.836181 623.457495,510.185562 623.457495,511.354099 C623.457495,513.301659 622.725555,514.539751 621.261674,515.068375 C619.797793,515.596999 617.910157,515.221398 615.598767,513.941572 C613.287376,512.606102 610.55223,511.034142 607.39333,509.225693 C604.234429,507.417244 601.017744,505.567061 597.743274,503.675145 C594.468804,501.783229 591.232857,499.919135 588.035433,498.082864 C584.838009,496.246592 582.006556,494.632899 579.541072,493.241784 C577.229682,491.906314 576.054725,490.6404 576.015188,489.444041 C575.977678,488.247682 577.037066,487.00959 579.194364,485.729765 C581.351662,484.394294 583.932715,482.850157 586.937522,481.097353 C589.94233,479.344548 593.062708,477.536099 596.298655,475.672005 C599.534602,473.807911 602.712764,471.957729 605.833141,470.121457 C608.953519,468.285186 611.746449,466.64367 614.211932,465.196911 C616.908555,463.638862 619.123638,463.040683 620.857181,463.402373 C622.590724,463.764063 623.457495,464.94651 623.457495,466.949715 L623.457495,469.036388 C623.457495,469.815412 623.476757,470.622258 623.51528,471.456927 C623.553803,472.291596 623.592326,473.112354 623.630849,473.9192 C623.669373,474.726047 623.688634,475.435515 623.688634,476.047606 C623.765681,477.438721 624.382051,478.315123 625.537747,478.676813 C626.693442,479.038503 628.272892,479.219348 630.276098,479.219348 C632.510442,479.219348 635.438203,479.205436 639.059382,479.177614 C642.680561,479.149792 646.455832,479.135881 650.385197,479.135881 C654.314561,479.135881 658.128355,479.12197 661.82658,479.094147 C665.524805,479.066325 668.529613,479.052414 670.841004,479.052414 C671.842607,479.052414 672.882732,479.108058 673.961381,479.219348 C675.04003,479.330637 676.022371,479.594949 676.908405,480.012283 C677.794438,480.429617 678.526378,481.013886 679.104226,481.765088 C679.682073,482.51629 679.970997,483.503981 679.970997,484.728162 C679.970997,486.230566 679.990259,487.677325 680.028782,489.06844 C680.067305,490.459555 680.086567,492.017603 680.086567,493.742586 L680.086567,493.742586 Z" id="path-3"></path>
        <filter x="-20.7%" y="-37.5%" width="141.3%" height="182.7%" filterUnits="objectBoundingBox" id="filter-4">
            <feMorphology radius="1" operator="dilate" in="SourceAlpha" result="shadowSpreadOuter1"></feMorphology>
            <feOffset dx="0" dy="2" in="shadowSpreadOuter1" result="shadowOffsetOuter1"></feOffset>
            <feGaussianBlur stdDeviation="6.5" in="shadowOffsetOuter1" result="shadowBlurOuter1"></feGaussianBlur>
            <feComposite in="shadowBlurOuter1" in2="SourceAlpha" operator="out" result="shadowBlurOuter1"></feComposite>
            <feColorMatrix values="0 0 0 0 0.0196512718   0 0 0 0 0.140814247   0 0 0 0 0.368716033  0 0 0 0.522945804 0" type="matrix" in="shadowBlurOuter1"></feColorMatrix>
        </filter>
    </defs>
    <g id="页面-1" stroke="none" stroke-width="1" fill="none" fill-rule="evenodd">
        <g id="应用场景备份" transform="translate(-563.000000, -452.000000)" fill-rule="nonzero">
            <g id="路径">
                <use fill="black" fill-opacity="1" filter="url(#filter-4)" xlink:href="#path-3"></use>
                <use stroke="url(#linearGradient-2)" stroke-width="2" fill="url(#linearGradient-1)" xlink:href="#path-3"></use>
            </g>
        </g>
    </g>
</svg>