<?xml version="1.0" encoding="UTF-8"?>
<svg width="174px" height="28px" viewBox="0 0 174 28" version="1.1" xmlns="http://www.w3.org/2000/svg" xmlns:xlink="http://www.w3.org/1999/xlink">
    <title>编组</title>
    <defs>
        <polygon id="path-1" points="0 28 174 28 174 0 0 0"></polygon>
    </defs>
    <g id="页面-1" stroke="none" stroke-width="1" fill="none" fill-rule="evenodd">
        <g id="应用场景备份" transform="translate(-70.000000, -41.000000)">
            <g id="编组" transform="translate(70.000000, 41.000000)">
                <path d="M96.9024686,12.2294508 L98.8380158,12.2294508 L98.8380158,11.0985795 L96.9024686,11.0985795 L96.9024686,12.2294508 Z M96.9024686,9.80596591 L98.8380158,9.80596591 L98.8380158,8.67575758 L96.9024686,8.67575758 L96.9024686,9.80596591 Z M96.9024686,7.22206439 L98.8380158,7.22206439 L98.8380158,6.09185606 L96.9024686,6.09185606 L96.9024686,7.22206439 Z M98.6764996,14.3294508 L102.38674,14.3294508 L102.38674,13.360322 L103.192997,13.360322 L103.192997,11.9066288 L102.38674,11.9066288 L102.38674,6.25293561 L103.192997,6.25293561 L103.192997,4.47708333 L92.3866331,4.47708333 L92.3866331,6.09185606 L93.0320362,6.09185606 L93.0320362,12.2294508 L92.2251169,12.2294508 L92.2251169,13.6831439 L98.6764996,13.5214015 L98.6764996,14.3294508 Z" id="Fill-1" fill="#3F3A3A"></path>
                <polygon id="Fill-2" fill="#3F3A3A" points="107.064025 14.4903977 107.54725 13.8440909 107.870283 14.4903977 111.740715 14.4903977 109.321943 10.9373674 111.902893 7.38367424 111.902893 4.47695076 103.838334 4.47695076 103.838334 6.25280303 108.677202 6.25280303 107.54725 7.86823864 106.902509 6.89910985 103.99985 6.89910985 103.99985 8.51388258 105.612365 10.9373674 103.354447 14.4903977"></polygon>
                <g>
                    <path d="M123.193342,7.22199811 L119.483764,7.22199811 L119.645281,8.67569129 C119.645281,8.67569129 119.967651,9.80589962 118.999878,9.80589962 L117.548217,9.80589962 L118.676845,4.47635417 L114.322526,4.47635417 L113.193236,11.2602557 L121.257795,11.4213352 C121.257795,11.4213352 123.676567,11.2602557 123.515713,9.64482008 C123.354859,8.03004735 123.193342,7.22199811 123.193342,7.22199811" id="Fill-3" fill="#3F3A3A"></path>
                    <mask id="mask-2" fill="white">
                        <use xlink:href="#path-1"></use>
                    </mask>
                    <g id="Clip-6"></g>
                    <path d="M117.38723,19.1744318 L119.484294,19.1744318 L119.484294,16.5905303 L117.38723,16.5905303 L117.38723,19.1744318 Z M117.38723,15.1361742 L119.484294,15.1361742 L119.484294,13.6831439 L117.38723,13.6831439 L117.38723,15.1361742 Z M113.515474,14.9750947 L92.7090037,14.8133523 L92.7090037,16.5905303 L99.4834189,16.5905303 L99.4834189,24.0200758 L104.483803,24.0200758 L104.483803,16.5905303 L113.515474,16.5905303 L113.515474,24.0200758 L117.38723,24.0200758 L117.38723,20.628125 L119.484294,20.628125 L119.484294,21.5972538 C119.484294,21.5972538 119.645148,22.5670455 118.515858,22.5670455 L118.515858,24.0200758 L121.257663,24.0200758 C121.257663,24.0200758 123.19321,24.0200758 123.19321,21.9200758 L123.19321,12.2294508 L113.515474,12.2294508 L113.515474,14.9750947 Z" id="Fill-5" fill="#3F3A3A" mask="url(#mask-2)"></path>
                    <polygon id="Fill-7" fill="#3F3A3A" mask="url(#mask-2)" points="98.6764996 17.2363731 94.161326 17.2363731 92.3866331 20.1437595 96.9024686 20.1437595"></polygon>
                    <polygon id="Fill-8" fill="#3F3A3A" mask="url(#mask-2)" points="92.2251169 23.8587311 96.9024686 23.8587311 98.8380158 20.7896023 94.161326 20.7896023"></polygon>
                    <polygon id="Fill-9" fill="#3F3A3A" mask="url(#mask-2)" points="110.612352 17.2363731 105.773484 17.2363731 105.128081 19.3357102 106.579741 23.8585322 111.419271 23.8585322 109.966949 19.3357102"></polygon>
                    <polygon id="Fill-10" fill="#3F3A3A" mask="url(#mask-2)" points="132.709496 12.3903977 128.838402 12.3903977 128.838402 8.83736742 132.709496 7.86823864 132.709496 6.41454545 128.838402 7.38367424 128.838402 4.47695076 124.16105 4.47695076 124.16105 13.8440909 132.709496 13.8440909"></polygon>
                    <path d="M135.612684,22.5665814 L128.838931,22.5665814 L128.838931,19.1746307 C128.838931,19.1746307 133.354767,18.8518087 135.612684,13.8444223 L135.774201,13.8444223 L135.612684,22.5665814 Z M140.935439,4.47661932 L136.258087,4.47661932 C136.258087,4.47661932 134.966619,11.0981155 133.516283,14.0061648 C132.064622,16.9135511 128.838931,17.2363731 128.838931,17.2363731 L128.838931,14.8135511 L124.160917,14.8135511 L124.160917,24.0196117 L140.451552,24.0196117 L140.451552,9.4833428 L139.645295,9.4833428 C139.967666,8.83703598 140.935439,4.47661932 140.935439,4.47661932 L140.935439,4.47661932 Z" id="Fill-11" fill="#3F3A3A" mask="url(#mask-2)"></path>
                    <polygon id="Fill-12" fill="#3F3A3A" mask="url(#mask-2)" points="152.064505 10.7752936 153.677681 10.7752936 153.677681 9.15985795 149.000329 9.15985795 149.000329 4.47661932 144.161461 4.47661932 144.161461 9.15985795 141.258141 9.15985795 141.258141 10.7752936 143.999283 10.7752936 140.93577 24.0196117 145.451606 24.0196117 147.87104 14.1672443 147.709523 24.0196117 157.870484 24.0196117 157.870484 22.5665814 152.064505 22.5665814"></polygon>
                    <polygon id="Fill-13" fill="#3F3A3A" mask="url(#mask-2)" points="153.67735 8.67595644 152.871093 4.96118371 149.805594 4.96118371 150.451659 8.67595644"></polygon>
                    <path d="M159.967945,12.7133523 L161.741976,12.7133523 L161.741976,8.83683712 L159.967945,8.83683712 L159.967945,12.7133523 Z M159.967945,17.8824811 L161.741976,17.8824811 L161.741976,14.3294508 L159.967945,14.3294508 L159.967945,17.8824811 Z M166.580182,14.3294508 L168.515729,14.3294508 L168.515729,16.9133523 C168.515729,16.9133523 168.515729,17.8824811 167.870988,17.8824811 L166.580182,17.8824811 L166.580182,14.3294508 Z M166.580182,12.7140152 L168.515729,12.7140152 L168.515729,8.8375 L166.580182,8.8375 L166.580182,12.7140152 Z M166.580182,22.5670455 L166.580182,19.1744318 L170.451938,19.1744318 C170.451938,19.1744318 173.032226,19.1744318 173.032226,17.0744318 L173.032226,7.38380682 L166.580182,7.38380682 L166.580182,4.47708333 L161.741976,4.47708333 L161.741976,7.38380682 L155.289931,7.38380682 L155.289931,19.1744318 L161.741976,19.1744318 L161.741976,24.0200758 L174,24.0200758 L174,22.5670455 L166.580182,22.5670455 Z" id="Fill-14" fill="#3F3A3A" mask="url(#mask-2)"></path>
                    <polygon id="Fill-15" fill="#00AE83" mask="url(#mask-2)" points="25.5522018 5.99335227 22.1279249 21.9468561 27.3388098 21.9468561 29.1254178 14.044678 34.1873636 21.9468561 37.7612416 21.9468561 38.5052755 18.5177841 30.4652083 5.99335227"></polygon>
                    <polygon id="Fill-16" fill="#E73830" mask="url(#mask-2)" points="36.1233741 5.99335227 34.9318608 11.0623864 38.5057388 16.5795265 40.8874416 5.99335227"></polygon>
                    <polygon id="Fill-17" fill="#00AE83" mask="url(#mask-2)" points="41.4833306 5.99335227 40.5896956 9.8705303 42.2280264 16.2812311 41.1854523 21.9468561 45.6516414 21.9468561 46.5452764 16.7280114 53.5427693 5.99335227 48.7787019 5.99335227 45.6516414 11.5098295 44.0139725 5.99335227"></polygon>
                    <polygon id="Fill-18" fill="#00AE83" mask="url(#mask-2)" points="50.1187572 21.9471212 54.7338855 21.9471212 55.7764596 16.8780871 62.6250134 5.99361742 57.7120068 5.99361742 54.5856083 11.5100947 53.5430341 6.88784091 50.1187572 12.1060227 51.1606694 16.4306439"></polygon>
                    <path d="M77.9074957,8.02083333 C78.5979114,8.93096591 79.0036879,9.90208333 79.0857699,10.9268939 C79.6835125,18.3690341 63.0751407,25.7786932 41.9906505,27.4763258 C39.38587,27.6857955 36.8340456,27.797822 34.3609935,27.8203598 C36.4938024,27.9376894 38.6802293,28 40.9090212,28 C63.5020996,28 81.8176452,21.7318182 81.8176452,14 C81.8176452,11.8608902 80.4136453,9.83380682 77.9074957,8.02083333" id="Fill-19" fill="#00AE83" mask="url(#mask-2)"></path>
                    <path d="M39.8271271,0.523939394 C42.4325696,0.314469697 44.9843939,0.201780303 47.4567841,0.179242424 C45.3246372,0.0619128788 43.1382102,0.000265151515 40.9087564,0.000265151515 C18.315678,0.000265151515 0.000132390369,6.26778409 0.000132390369,13.9996023 C0.000132390369,16.139375 1.40479421,18.1651326 3.91094389,19.9787689 C3.21986616,19.0692992 2.81408968,18.0981818 2.73200765,17.0733712 C2.13492709,9.63056818 18.7426369,2.22157197 39.8271271,0.523939394" id="Fill-20" fill="#E73830" mask="url(#mask-2)"></path>
                </g>
            </g>
        </g>
    </g>
</svg>