<?xml version="1.0" encoding="UTF-8"?>
<svg width="110px" height="64px" viewBox="0 0 110 64" version="1.1" xmlns="http://www.w3.org/2000/svg" xmlns:xlink="http://www.w3.org/1999/xlink">
    <title>视频播放web</title>
    <defs>
        <path d="M23.472,48.004 L24.192,47.548 C23.976,47.104 23.508,46.492 23.052,46.048 L22.368,46.444 C22.8,46.912 23.256,47.572 23.472,48.004 Z M26.76,52.936 L26.76,47.392 L30.444,47.392 L30.444,52.936 L31.332,52.936 L31.332,46.6 L25.896,46.6 L25.896,52.936 L26.76,52.936 Z M23.64,56.968 L23.64,51.832 C24.06,52.372 24.564,53.056 24.804,53.416 L25.368,52.708 C25.14,52.444 24.312,51.484 23.868,50.992 C24.432,50.188 24.924,49.276 25.26,48.364 L24.78,48.04 L24.612,48.076 L21.288,48.076 L21.288,48.892 L24.18,48.892 C23.484,50.404 22.212,51.904 21,52.732 C21.132,52.9 21.324,53.344 21.396,53.596 C21.864,53.248 22.332,52.816 22.788,52.324 L22.788,56.968 L23.64,56.968 Z M25.308,56.992 C27.096,56.044 28.032,54.784 28.512,53.5 L28.512,55.792 C28.512,56.572 28.836,56.8 29.652,56.8 L30.744,56.8 C31.764,56.8 31.908,56.32 32.016,54.436 C31.788,54.376 31.5,54.256 31.284,54.088 C31.224,55.804 31.164,56.116 30.756,56.116 L29.784,56.116 C29.436,56.116 29.34,56.032 29.34,55.696 L29.34,52.744 L28.74,52.744 C28.92,52.012 28.98,51.316 28.98,50.656 L28.98,48.304 L28.116,48.304 L28.116,50.632 C28.116,52.492 27.756,54.76 24.744,56.32 C24.924,56.464 25.212,56.8 25.308,56.992 Z M43.566667,54.16 L43.566667,50.524 L45.774667,50.524 L45.774667,49.732 L43.770667,49.732 L43.770667,48.268 L45.498667,48.268 L45.498667,47.512 L43.770667,47.512 L43.770667,46.024 L42.978667,46.024 L42.978667,49.732 L41.898667,49.732 L41.898667,47.068 L41.166667,47.068 L41.166667,49.732 L40.278667,49.732 L40.278667,50.524 L42.750667,50.524 L42.750667,54.16 L43.566667,54.16 Z M47.046667,54.4 L47.046667,49.468 L49.974667,49.468 L49.974667,54.376 L50.778667,54.376 L50.778667,48.784 L48.618667,48.784 C48.774667,48.412 48.954667,47.944 49.110667,47.512 L51.114667,47.512 L51.114667,46.72 L45.966667,46.72 L45.966667,47.512 L48.246667,47.512 C48.126667,47.92 47.958667,48.412 47.814667,48.784 L46.266667,48.784 L46.266667,54.4 L47.046667,54.4 Z M45.546667,57.016 C48.642667,56.128 48.870667,54.484 48.894667,50.056 L48.150667,50.056 C48.114667,54.232 47.994667,55.6 45.114667,56.38 C45.270667,56.536 45.474667,56.824 45.546667,57.016 Z M40.890667,54.1 C41.394667,53.44 41.862667,52.444 42.138667,51.46 L41.382667,51.304 C41.154667,52.18 40.746667,53.068 40.242667,53.68 C40.434667,53.776 40.746667,53.98 40.890667,54.1 Z M40.854667,57.016 C43.542667,56.068 44.994667,54.328 45.666667,51.616 L44.910667,51.424 C44.286667,53.908 42.906667,55.528 40.374667,56.332 C40.566667,56.512 40.758667,56.8 40.854667,57.016 Z M50.790667,57.004 L51.318667,56.44 C50.814667,55.912 49.782667,55.096 48.966667,54.532 L48.474667,55.024 C49.266667,55.624 50.298667,56.476 50.790667,57.004 Z M61.477334,56.812 C61.777334,56.668 61.897334,56.428 61.897334,55.936 L61.897334,52.288 C62.317334,52.132 62.749334,51.964 63.157334,51.796 L63.001334,51.004 L61.897334,51.4 L61.897334,49.252 L63.169334,49.252 L63.169334,48.424 L61.897334,48.424 L61.897334,46.024 L61.057334,46.024 L61.057334,48.424 L59.569334,48.424 L59.569334,49.252 L61.057334,49.252 L61.057334,51.7 C60.421334,51.928 59.845334,52.12 59.389334,52.276 L59.581334,53.152 C60.037334,52.984 60.529334,52.792 61.057334,52.6 L61.057334,55.936 C61.057334,56.116 60.997334,56.152 60.853334,56.152 C60.721334,56.164 60.241334,56.164 59.725334,56.152 C59.845334,56.404 59.953334,56.764 59.989334,56.98 C60.745334,56.992 61.201334,56.956 61.477334,56.812 Z M69.709334,52.36 C69.853334,52.444 69.985334,52.516 70.117334,52.588 C70.249334,52.372 70.513334,52.084 70.681334,51.928 C69.697334,51.52 68.593334,50.716 67.885334,49.876 L70.345334,49.876 L70.345334,49.132 L68.617334,49.132 C68.893334,48.664 69.205334,48.064 69.469334,47.524 L68.689334,47.272 C68.497334,47.812 68.125334,48.604 67.813334,49.132 L67.129334,49.132 L67.129334,47.176 C68.137334,47.08 69.085334,46.936 69.841334,46.756 L69.313334,46.096 C67.921334,46.432 65.413334,46.66 63.349334,46.78 C63.433334,46.96 63.529334,47.248 63.553334,47.44 C64.417334,47.404 65.389334,47.344 66.313334,47.26 L66.313334,49.132 L64.789,49.132 L63.205334,49.132 L63.205334,49.876 L65.593334,49.876 C64.885334,50.788 63.733334,51.628 62.665334,52.072 C62.845334,52.216 63.097334,52.528 63.217334,52.708 C64.345334,52.192 65.557334,51.208 66.313334,50.116 L66.313334,52.096 L67.129334,52.096 L67.129334,50.068 C67.777334,50.944 68.749334,51.808 69.709334,52.36 Z M64.789334,49.132 L65.533334,48.856 C65.389334,48.508 65.089334,47.932 64.837334,47.5 L64.117334,47.716 C64.369334,48.172 64.657334,48.772 64.789334,49.132 Z M66.313334,54.064 L64.693334,54.064 L64.693334,53.044 L66.313334,53.044 L66.313334,54.064 Z M68.881334,54.064 L67.081334,54.064 L67.081334,53.044 L68.881334,53.044 L68.881334,54.064 Z M68.881334,55.768 L67.081334,55.768 L67.081334,54.736 L68.881334,54.736 L68.881334,55.768 Z M66.313334,55.768 L64.693334,55.768 L64.693334,54.736 L66.313334,54.736 L66.313334,55.768 Z M69.709334,52.36 L63.889334,52.36 L63.889334,56.968 L64.693334,56.968 L64.693334,56.44 L68.881334,56.44 L68.881334,56.896 L69.709334,56.896 L69.709334,52.36 Z M81.404001,47.86 L82.208001,47.596 C82.088001,47.164 81.812001,46.504 81.560001,46 L80.792001,46.228 C81.020001,46.732 81.296001,47.416 81.404001,47.86 Z M83.984001,57.004 C85.172001,56.392 86.108001,55.624 86.828001,54.676 C87.452001,55.648 88.256001,56.428 89.264001,56.956 C89.408001,56.704 89.684001,56.368 89.888001,56.188 C88.832001,55.696 88.016001,54.892 87.368001,53.872 C88.112001,52.576 88.604001,51.004 88.904001,49.072 L89.780001,49.072 L89.780001,48.244 L86.036001,48.244 C86.228001,47.572 86.384001,46.864 86.528001,46.156 L85.628001,46.012 C85.256001,48.064 84.596001,50.068 83.624001,51.328 C83.828001,51.484 84.176001,51.832 84.320001,52 C84.632001,51.556 84.932001,51.064 85.184001,50.512 C85.484001,51.748 85.856001,52.876 86.348001,53.848 C85.652001,54.856 84.716001,55.648 83.468001,56.224 C83.636001,56.416 83.900001,56.8 83.984001,57.004 Z M79.292001,56.968 C80.876001,55.276 81.116001,53.248 81.116001,51.28 L81.116001,51.196 L82.736001,51.196 C82.664001,54.484 82.580001,55.636 82.376001,55.9 C82.292001,56.032 82.184001,56.068 82.028001,56.068 C81.836001,56.068 81.392001,56.056 80.900001,56.008 C81.032001,56.248 81.116001,56.596 81.140001,56.836 C81.644001,56.872 82.124001,56.872 82.424001,56.836 C82.736001,56.8 82.940001,56.704 83.132001,56.452 C83.432001,56.032 83.516001,54.712 83.600001,50.788 C83.6068581,50.7194286 83.6097969,50.596 83.6110564,50.5027988 L83.611966,50.3963032 C83.612001,50.3858776 83.612001,50.38 83.612001,50.38 L81.116001,50.38 L81.116001,48.784 L84.140001,48.784 L84.140001,47.956 L78.848001,47.956 L78.848001,48.784 L80.264001,48.784 L80.264001,51.268 C80.264001,52.96 80.084001,54.844 78.632001,56.392 C78.848001,56.536 79.136001,56.776 79.292001,56.968 Z M86.864001,52.972 C86.336001,51.88 85.976001,50.596 85.724001,49.192 C85.736001,49.156 85.748001,49.108 85.772001,49.072 L88.016001,49.072 C87.788001,50.608 87.428001,51.892 86.864001,52.972 Z" id="path-1"></path>
        <filter x="-13.7%" y="-83.4%" width="127.9%" height="269.7%" filterUnits="objectBoundingBox" id="filter-2">
            <feMorphology radius="0.5" operator="dilate" in="SourceAlpha" result="shadowSpreadOuter1"></feMorphology>
            <feOffset dx="0" dy="0" in="shadowSpreadOuter1" result="shadowOffsetOuter1"></feOffset>
            <feGaussianBlur stdDeviation="2.5" in="shadowOffsetOuter1" result="shadowBlurOuter1"></feGaussianBlur>
            <feColorMatrix values="0 0 0 0 1   0 0 0 0 1   0 0 0 0 1  0 0 0 1 0" type="matrix" in="shadowBlurOuter1"></feColorMatrix>
        </filter>
    </defs>
    <g id="页面-1" stroke="none" stroke-width="1" fill="none" fill-rule="evenodd">
        <g id="视频播放web">
            <rect id="矩形备份" stroke="#FF2D83" fill-opacity="0.343285621" fill="#FFFFFF" x="0.5" y="0.5" width="109" height="39" rx="2"></rect>
            <g id="编组" transform="translate(43.000000, 9.000000)" fill="#FF2D83" fill-rule="nonzero">
                <path d="M10.0445223,4.00627943 L6.65032518,0 L2.79589795,0 L6.19009505,3.99476713 L10.0445223,3.99476713 L10.0445223,4.00627943 Z M20.0430215,4.00627943 L16.6488244,0.0115122792 L12.7943972,0.0115122792 L16.2001001,4.00627943 L20.0430215,4.00627943 Z M15.0495248,4.00627943 L11.6553277,0.0115122792 L7.80090045,0.0115122792 L11.1950976,4.00627943 L15.0495248,4.00627943 Z M21.4927464,0 L17.7993997,0 L21.2051026,3.99476713 L23,3.99476713 L23,1.50811093 C22.9884942,0.656200942 22.3441721,0 21.4927464,0 Z M1.64532268,0 L1.49574788,0 C0.644322179,0 4.4408921e-16,0.644688636 4.4408921e-16,1.49659862 L4.4408921e-16,3.99476713 L5.05102552,3.99476713 L1.64532268,0 Z M0,20.5034014 C0,21.3553113 0.644322152,22 1.49574788,22 L21.4927464,22 C22.3441721,22 22.9884942,21.3553114 22.9884942,20.5034014 L22.9884942,5.00784929 L0,5.00784929 L0,20.5034014 Z M7.99649826,9.50915749 C7.99649826,8.65724751 8.6983492,8.25431711 9.49224612,8.25431711 C9.74537269,8.25431711 10.0445223,8.30036631 10.2976488,8.45002616 L15.9929965,11.7540555 C16.6833417,12.122449 16.947974,12.974359 16.5797899,13.6650968 C16.4532266,13.9183673 16.2461231,14.1140764 15.9929965,14.252224 L10.2976488,17.5562533 C10.0445223,17.7059131 9.80290145,17.7519623 9.49224612,17.7519623 C8.68684341,17.7519623 7.99649826,17.3490319 7.99649826,16.4971219 L7.99649826,9.50915749 Z" id="形状"></path>
            </g>
            <g id="视频播放" fill-rule="nonzero">
                <use fill="black" fill-opacity="1" filter="url(#filter-2)" xlink:href="#path-1"></use>
                <use fill="#FF2D83" xlink:href="#path-1"></use>
            </g>
        </g>
    </g>
</svg>